<mxfile host="app.diagrams.net" agent="Mozilla/5.0 (Windows NT 10.0; Win64; x64) AppleWebKit/537.36 (KHTML, like Gecko) Chrome/122.0.0.0 Safari/537.36" version="24.8.6">
  <diagram name="Trang-1" id="rfORvWP5LFyDHepjnwui">
    <mxGraphModel grid="1" page="1" gridSize="10" guides="1" tooltips="1" connect="1" arrows="1" fold="1" pageScale="1" pageWidth="827" pageHeight="1169" math="0" shadow="0">
      <root>
        <mxCell id="0" />
        <mxCell id="1" parent="0" />
        <mxCell id="NqiPhid2u6AlV2EVMdDl-3" value="" style="edgeStyle=orthogonalEdgeStyle;rounded=0;orthogonalLoop=1;jettySize=auto;html=1;" edge="1" parent="1" source="NqiPhid2u6AlV2EVMdDl-1" target="NqiPhid2u6AlV2EVMdDl-2">
          <mxGeometry relative="1" as="geometry" />
        </mxCell>
        <mxCell id="NqiPhid2u6AlV2EVMdDl-1" value="&lt;font style=&quot;vertical-align: inherit;&quot;&gt;&lt;font style=&quot;vertical-align: inherit;&quot;&gt;Bắt Đầu&lt;/font&gt;&lt;/font&gt;" style="ellipse;whiteSpace=wrap;html=1;" vertex="1" parent="1">
          <mxGeometry x="354" y="60" width="120" height="80" as="geometry" />
        </mxCell>
        <mxCell id="NqiPhid2u6AlV2EVMdDl-5" value="" style="edgeStyle=orthogonalEdgeStyle;rounded=0;orthogonalLoop=1;jettySize=auto;html=1;" edge="1" parent="1" source="NqiPhid2u6AlV2EVMdDl-2" target="NqiPhid2u6AlV2EVMdDl-4">
          <mxGeometry relative="1" as="geometry" />
        </mxCell>
        <mxCell id="NqiPhid2u6AlV2EVMdDl-2" value="&lt;font style=&quot;vertical-align: inherit;&quot;&gt;&lt;font style=&quot;vertical-align: inherit;&quot;&gt;Nhập a,b&lt;/font&gt;&lt;/font&gt;" style="shape=parallelogram;perimeter=parallelogramPerimeter;whiteSpace=wrap;html=1;fixedSize=1;" vertex="1" parent="1">
          <mxGeometry x="354" y="230" width="120" height="60" as="geometry" />
        </mxCell>
        <mxCell id="NqiPhid2u6AlV2EVMdDl-8" style="edgeStyle=orthogonalEdgeStyle;rounded=0;orthogonalLoop=1;jettySize=auto;html=1;entryX=0.5;entryY=0;entryDx=0;entryDy=0;" edge="1" parent="1" source="NqiPhid2u6AlV2EVMdDl-4" target="NqiPhid2u6AlV2EVMdDl-7">
          <mxGeometry relative="1" as="geometry" />
        </mxCell>
        <mxCell id="NqiPhid2u6AlV2EVMdDl-4" value="a+b= tổng" style="shape=parallelogram;perimeter=parallelogramPerimeter;whiteSpace=wrap;html=1;fixedSize=1;" vertex="1" parent="1">
          <mxGeometry x="331" y="370" width="166" height="60" as="geometry" />
        </mxCell>
        <mxCell id="NqiPhid2u6AlV2EVMdDl-7" value="End" style="ellipse;whiteSpace=wrap;html=1;" vertex="1" parent="1">
          <mxGeometry x="354" y="500" width="120" height="80" as="geometry" />
        </mxCell>
      </root>
    </mxGraphModel>
  </diagram>
</mxfile>
